<?xml version="1.0" standalone="no"?>
<!DOCTYPE svg PUBLIC "-//W3C//DTD SVG 20010904//EN"
 "http://www.w3.org/TR/2001/REC-SVG-20010904/DTD/svg10.dtd">
<svg version="1.0" xmlns="http://www.w3.org/2000/svg"
 width="512.000000pt" height="304.000000pt" viewBox="0 0 512.000000 304.000000"
 preserveAspectRatio="xMidYMid meet">
<g transform="translate(0.000000,304.000000) scale(0.100000,-0.100000)"
fill="currentColor" stroke="none">
<path d="M970 3003 c-59 -53 -48 -153 20 -188 26 -13 249 -15 1920 -15 2097 0
1936 5 1966 -65 21 -51 21 -2379 0 -2430 -30 -70 131 -65 -1966 -65 -1671 0
-1894 -2 -1920 -15 -68 -35 -79 -135 -20 -188 l30 -27 1933 2 1932 3 56 26
c72 34 134 96 168 168 l26 56 0 1255 0 1255 -26 56 c-34 72 -96 134 -168 168
l-56 26 -1932 3 -1933 2 -30 -27z"/>
<path d="M1460 2563 c-54 -20 -88 -96 -69 -152 9 -25 137 -126 667 -528 362
-273 682 -509 712 -525 151 -75 369 -75 517 0 58 30 1336 1009 1350 1035 15
27 16 77 3 111 -12 32 -58 56 -108 56 -47 0 22 50 -717 -515 -341 -261 -623
-469 -655 -484 -80 -37 -201 -37 -282 1 -34 16 -308 219 -675 499 -340 260
-634 481 -653 491 -34 18 -62 21 -90 11z"/>
<path d="M63 2206 c-79 -35 -83 -170 -6 -205 16 -7 189 -11 534 -11 l511 0 29
29 c24 25 29 37 29 80 0 42 -5 56 -29 83 l-29 33 -504 2 c-413 2 -509 0 -535
-11z"/>
<path d="M422 1629 c-97 -28 -93 -191 5 -218 50 -14 954 -15 1004 -1 50 14 71
41 77 100 3 36 0 57 -13 76 -35 53 -44 54 -562 53 -269 0 -492 -5 -511 -10z"/>
<path d="M3767 1370 c-41 -35 -52 -79 -33 -123 8 -18 178 -195 382 -399 279
-277 377 -368 400 -372 67 -14 134 40 134 108 0 23 -7 53 -16 66 -24 36 -672
687 -718 721 -53 40 -103 39 -149 -1z"/>
<path d="M747 1039 c-24 -14 -47 -63 -47 -101 0 -47 20 -80 60 -100 32 -16 78
-18 520 -18 442 0 488 2 520 18 74 36 82 141 16 194 -19 16 -63 18 -536 17
-332 0 -521 -3 -533 -10z"/>
</g>
</svg>
